# xmcd
#
# Track frame offsets:
#	150
#	15424
#	32479
#	46006
#	62860
#	77594
#	93465
#	111351
#	127659
#	146376
#	164478
#	180406
#
# Disc length: 2584 seconds
#
# Revision: 1
# Processed by: cddbd v1.5.2PL0 Copyright (c) Steve Scherf et al.
# Submitted via: audiograbber 1.83.01
#
DISCID=8a0a160c
DTITLE=Nikki Lane - All Or Nothin'
DYEAR=2014
DGENRE=Country
TTITLE0=Right Time
TTITLE1=Good Man
TTITLE2=I Don't Care
TTITLE3=You Can't Talk To Me Like That
TTITLE4=Seein' Double
TTITLE5=Love's On Fire
TTITLE6=All Or Nothin'
TTITLE7=Sleep With A Stranger
TTITLE8=Man Up
TTITLE9=Out Of My Mind
TTITLE10=Wild One
TTITLE11=Want My Heart Back
EXTD=
EXTT0=
EXTT1=
EXTT2=
EXTT3=
EXTT4=
EXTT5=
EXTT6=
EXTT7=
EXTT8=
EXTT9=
EXTT10=
EXTT11=
PLAYORDER=
